
<svg width="160" height="32" viewBox="0 0 160 32" fill="none" xmlns="http://www.w3.org/2000/svg">
<path d="M54.2378 23.4217L48.7258 8.78555C48.5768 8.41228 48.2987 8.21582 47.9015 8.21582H45.3789C44.9816 8.21582 44.7035 8.41228 44.5546 8.78555L39.0426 23.4217L38.9929 23.628C38.9929 23.7655 39.0426 23.8834 39.132 23.9718C39.2213 24.0602 39.3405 24.1093 39.4796 24.1093H41.5155C41.8333 24.1093 42.0618 23.962 42.1809 23.6771L43.2337 20.9365H50.0268L51.0795 23.6771C51.1987 23.962 51.4271 24.1093 51.7449 24.1093H53.7809C53.9001 24.1093 54.0193 24.0602 54.1186 23.9718C54.2179 23.8834 54.2675 23.7655 54.2675 23.628L54.2378 23.4217ZM44.048 18.2942L46.6402 11.31L49.2323 18.2942H44.048Z" fill="#444444"/>
<path d="M69.4426 14.3949C69.3532 10.2791 67.0491 8.22607 62.5402 8.22607H61.7755C61.7159 8.22607 61.6663 8.27519 61.6663 8.33413V10.7506C61.6663 10.8095 61.7159 10.8586 61.7755 10.8586H62.431C63.7122 10.8586 64.6557 11.1435 65.2515 11.7329C65.8474 12.3124 66.1652 13.226 66.195 14.4735C66.2248 15.3477 66.2447 15.9076 66.2447 16.1532C66.2447 16.3791 66.2248 16.9488 66.195 17.8526C66.1652 19.159 65.8673 20.0824 65.3012 20.6423C64.7351 21.2022 63.8214 21.487 62.5502 21.487H59.6303V8.3243C59.6303 8.26537 59.5807 8.22607 59.531 8.22607H56.9587C56.7899 8.22607 56.6608 8.28501 56.5516 8.39306C56.4522 8.50112 56.4026 8.62881 56.4026 8.7958V23.5695C56.4026 23.7169 56.4522 23.8446 56.5615 23.9526C56.6707 24.0607 56.7998 24.1196 56.9587 24.1196H62.6694C64.9536 24.1196 66.632 23.6088 67.7344 22.6069C68.8269 21.5951 69.4029 20.0332 69.4625 17.9213C69.4923 17.0471 69.5121 16.4577 69.5121 16.1728C69.4824 15.8683 69.4724 15.2691 69.4426 14.3949Z" fill="#444444"/>
<path d="M84.069 17.3711C83.6916 16.7915 83.0957 16.32 82.2913 15.9468C81.4968 15.5637 80.4043 15.2297 79.0437 14.9252C78.0506 14.6698 77.2958 14.434 76.7694 14.2376C76.253 14.0313 75.8656 13.7955 75.6273 13.5205C75.379 13.2454 75.2598 12.9115 75.2598 12.4989C75.2598 11.8997 75.4982 11.438 75.9848 11.1139C76.4615 10.7897 77.1269 10.6424 77.9711 10.6424C78.7358 10.6424 79.3814 10.8094 79.8978 11.1335C80.4242 11.4577 80.7221 11.8604 80.7916 12.3516C80.9108 12.6168 81.1492 12.7543 81.4769 12.7543H83.6618C83.8009 12.7543 83.9101 12.7052 84.0094 12.607C84.0988 12.5087 84.1485 12.4007 84.1485 12.273C84.1187 11.6247 83.8605 10.9665 83.3838 10.3084C82.9071 9.65025 82.192 9.10017 81.2684 8.65814C80.3447 8.22593 79.2423 8 77.9711 8C76.7595 8 75.7067 8.19646 74.793 8.58938C73.8793 8.98229 73.1841 9.52256 72.6875 10.2102C72.2009 10.8978 71.9526 11.6836 71.9526 12.5578C71.9526 13.8545 72.3697 14.8564 73.2139 15.5538C74.0581 16.2513 75.379 16.8014 77.1865 17.2336C78.2889 17.5184 79.1232 17.764 79.6793 17.9703C80.2355 18.1766 80.6526 18.4123 80.9307 18.6874C81.2088 18.9624 81.3379 19.2964 81.3379 19.7089C81.3379 20.3278 81.0697 20.8189 80.5334 21.1726C79.9872 21.5262 79.1827 21.703 78.1101 21.703C77.1666 21.703 76.4119 21.5262 75.8756 21.1824C75.3293 20.8288 74.9817 20.4064 74.8328 19.8858C74.7434 19.7482 74.6341 19.6402 74.5348 19.5714C74.4256 19.4928 74.2865 19.4634 74.1177 19.4634H72.0321C71.893 19.4634 71.7738 19.5125 71.6845 19.6107C71.5951 19.7089 71.5554 19.817 71.5554 19.9447C71.5852 20.7305 71.8533 21.4574 72.3499 22.1254C72.8564 22.7933 73.5913 23.3238 74.5745 23.7363C75.5577 24.1489 76.7297 24.3454 78.1002 24.3454C79.4012 24.3454 80.5434 24.1587 81.5266 23.7756C82.5197 23.4024 83.2745 22.8523 83.8207 22.1352C84.367 21.4181 84.6351 20.5635 84.6351 19.5812C84.6451 18.6775 84.4564 17.9408 84.069 17.3711Z" fill="#444444"/>
<path d="M98.5122 8.38281C98.4029 8.27476 98.2639 8.21582 98.095 8.21582H86.3759C86.207 8.21582 86.0779 8.27476 85.9786 8.38281C85.8793 8.49086 85.8297 8.61856 85.8297 8.78555V10.4849C85.8297 10.6519 85.8793 10.7894 85.9886 10.8975C86.0978 11.0055 86.2269 11.0547 86.3759 11.0547H90.6166V23.5593C90.6166 23.7066 90.6762 23.8343 90.7755 23.9423C90.8748 24.0504 91.0139 24.1093 91.1629 24.1093H93.318C93.4868 24.1093 93.6159 24.0504 93.7152 23.9423C93.8146 23.8343 93.8642 23.7066 93.8642 23.5593V11.0645H98.0851C98.2539 11.0645 98.393 11.0154 98.5022 10.9073C98.6015 10.7993 98.6611 10.6617 98.6611 10.4947V8.79537C98.6711 8.62838 98.6115 8.49086 98.5122 8.38281Z" fill="#444444"/>
<path d="M112.249 21.6246C112.149 21.5263 112.01 21.4772 111.841 21.4772H104.135V17.3712H111.156C111.325 17.3712 111.454 17.3221 111.563 17.2239C111.673 17.1257 111.732 16.9881 111.732 16.8211V15.3968C111.732 15.2298 111.673 15.1021 111.563 14.9941C111.454 14.886 111.315 14.8271 111.156 14.8271H104.135V10.8586H111.663C111.832 10.8586 111.971 10.8095 112.08 10.7113C112.189 10.613 112.239 10.4755 112.239 10.3085V8.7958C112.239 8.62881 112.189 8.50112 112.08 8.39306C111.971 8.28501 111.832 8.22607 111.663 8.22607H101.552C101.384 8.22607 101.254 8.28501 101.145 8.39306C101.046 8.50112 100.996 8.62881 100.996 8.7958V23.5695C100.996 23.7169 101.046 23.8446 101.155 23.9526C101.264 24.0607 101.394 24.1196 101.552 24.1196H111.851C112.02 24.1196 112.159 24.0705 112.259 23.9722C112.368 23.874 112.427 23.7463 112.427 23.5793V22.0371C112.408 21.8603 112.348 21.7228 112.249 21.6246Z" fill="#444444"/>
<path d="M128.051 23.3824L124.724 17.5967C125.687 17.2627 126.432 16.7225 126.968 15.9661C127.504 15.2196 127.773 14.2962 127.773 13.1862C127.773 11.5949 127.236 10.3769 126.174 9.51245C125.111 8.64803 123.641 8.21582 121.764 8.21582H115.825C115.656 8.21582 115.527 8.27476 115.418 8.38281C115.318 8.49086 115.269 8.61856 115.269 8.78555V23.5593C115.269 23.7066 115.328 23.8343 115.438 23.9423C115.547 24.0504 115.676 24.1093 115.825 24.1093H117.94C118.109 24.1093 118.238 24.0504 118.348 23.9423C118.457 23.8343 118.516 23.7066 118.516 23.5593V18.1173H121.655L124.594 23.4905C124.704 23.6673 124.823 23.8245 124.962 23.9325C125.101 24.0406 125.29 24.1093 125.538 24.1093H127.653C127.773 24.1093 127.882 24.0602 127.991 23.9718C128.09 23.8834 128.14 23.7655 128.14 23.628C128.12 23.5593 128.1 23.4708 128.051 23.3824ZM123.76 14.9249C123.303 15.3276 122.608 15.5241 121.694 15.5241H118.506V10.7698H121.694C122.608 10.7698 123.293 10.9761 123.76 11.3886C124.217 11.8012 124.445 12.4004 124.445 13.1666C124.455 13.9426 124.227 14.532 123.76 14.9249Z" fill="#444444"/>
<path d="M143.514 23.3824L140.187 17.5967C141.15 17.2627 141.895 16.7225 142.431 15.9661C142.967 15.2196 143.226 14.2962 143.226 13.1862C143.226 11.5949 142.699 10.3769 141.637 9.51245C140.574 8.64803 139.104 8.21582 137.217 8.21582H131.278C131.109 8.21582 130.98 8.27476 130.871 8.38281C130.772 8.49086 130.722 8.61856 130.722 8.78555V23.5593C130.722 23.7066 130.781 23.8343 130.891 23.9423C130.99 24.0504 131.129 24.1093 131.278 24.1093H133.393C133.562 24.1093 133.691 24.0504 133.801 23.9423C133.91 23.8343 133.969 23.7066 133.969 23.5593V10.7698H137.157C138.071 10.7698 138.756 10.9761 139.223 11.3886C139.68 11.8012 139.909 12.4004 139.909 13.1666C139.909 13.9426 139.68 14.5221 139.223 14.9249C138.766 15.3276 138.071 15.5241 137.157 15.5241H136.135C136.065 15.5241 136.005 15.583 136.005 15.6518V17.9798C136.005 18.0486 136.065 18.1075 136.135 18.1075H137.118L140.057 23.4807C140.167 23.6575 140.286 23.8147 140.425 23.9227C140.564 24.0308 140.753 24.0995 141.001 24.0995H143.116C143.236 24.0995 143.345 24.0504 143.454 23.962C143.553 23.8736 143.603 23.7557 143.603 23.6182C143.583 23.5593 143.563 23.4708 143.514 23.3824Z" fill="#444444"/>
<path d="M159.97 23.4212L154.458 8.78506C154.309 8.41179 154.031 8.21533 153.634 8.21533H151.111C150.714 8.21533 150.436 8.41179 150.287 8.78506L144.775 23.4212L144.725 23.6275C144.725 23.765 144.775 23.8829 144.864 23.9713C144.954 24.0597 145.073 24.1089 145.212 24.1089H147.248C147.566 24.1089 147.794 23.9615 147.913 23.6766L148.966 20.936H155.759L156.812 23.6766C156.931 23.9615 157.16 24.1089 157.477 24.1089H159.513C159.633 24.1089 159.752 24.0597 159.851 23.9713C159.95 23.8829 160 23.765 160 23.6275L159.97 23.4212ZM149.78 18.2937L152.373 11.3096L154.965 18.2937H149.78Z" fill="#444444"/>
<path d="M30.6699 30.6107L19.5815 1.14089C19.2838 0.377228 18.7257 0 17.9257 0H12.8466C12.0466 0 11.4884 0.377228 11.1721 1.14089L0.0930236 30.6107L0 31.0155C0 31.2916 0.0930236 31.5216 0.279071 31.6964C0.465118 31.8804 0.688375 31.9724 0.967446 31.9724H5.22793C5.32095 31.9724 5.41398 31.954 5.507 31.9448C5.80467 31.8988 6.09305 31.77 6.36282 31.6228L15.0326 26.7372C15.2373 26.6268 15.4791 26.6268 15.6838 26.7372L24.4001 31.6412C24.6513 31.7792 24.9117 31.8988 25.2001 31.954C25.3675 31.9816 25.5257 32 25.6838 32C25.7862 32 25.8792 32 25.9815 31.9816H29.8048C30.0559 31.9816 30.2699 31.8896 30.4745 31.7056C30.6699 31.5308 30.7722 31.3008 30.7722 31.0247L30.6699 30.6107ZM15.0419 20.8488L9.11632 24.1978C8.96748 24.2806 8.80004 24.1334 8.85585 23.9862L15.2094 6.86372C15.2652 6.70731 15.4884 6.70731 15.5442 6.86372L21.8792 23.9862C21.935 24.1426 21.7675 24.2806 21.6187 24.1978L15.6838 20.8488C15.4884 20.7384 15.2373 20.7384 15.0419 20.8488Z" fill="white"/>
<path d="M30.6699 30.6107L19.5815 1.14089C19.2838 0.377228 18.7257 0 17.9257 0H12.8466C12.0466 0 11.4884 0.377228 11.1721 1.14089L0.0930236 30.6107L0 31.0155C0 31.2916 0.0930236 31.5216 0.279071 31.6964C0.465118 31.8804 0.688375 31.9724 0.967446 31.9724H5.22793C5.32095 31.9724 5.41398 31.954 5.507 31.9448C5.80467 31.8988 6.09305 31.77 6.36282 31.6228L15.0326 26.7372C15.2373 26.6268 15.4791 26.6268 15.6838 26.7372L24.4001 31.6412C24.6513 31.7792 24.9117 31.8988 25.2001 31.954C25.3675 31.9816 25.5257 32 25.6838 32C25.7862 32 25.8792 32 25.9815 31.9816H29.8048C30.0559 31.9816 30.2699 31.8896 30.4745 31.7056C30.6699 31.5308 30.7722 31.3008 30.7722 31.0247L30.6699 30.6107ZM15.0419 20.8488L9.11632 24.1978C8.96748 24.2806 8.80004 24.1334 8.85585 23.9862L15.2094 6.86372C15.2652 6.70731 15.4884 6.70731 15.5442 6.86372L21.8792 23.9862C21.935 24.1426 21.7675 24.2806 21.6187 24.1978L15.6838 20.8488C15.4884 20.7384 15.2373 20.7384 15.0419 20.8488Z" fill="url(#paint0_linear_377_743)"/>
<defs>
<linearGradient id="paint0_linear_377_743" x1="1.11107" y1="28.2728" x2="30.6149" y2="27.3926" gradientUnits="userSpaceOnUse">
<stop stop-color="#C73414"/>
<stop offset="0.0756" stop-color="#C52F0F"/>
<stop offset="1" stop-color="#FD4305"/>
</linearGradient>
</defs>
</svg>
