<svg width="214" height="35" xmlns="http://www.w3.org/2000/svg"><g fill="none" fill-rule="evenodd"><g fill="#5F6368"><path d="M212.044 19.46c-.047-.643-.342-1.256-.886-1.84-.545-.581-1.353-.873-2.427-.873-.782 0-1.459.245-2.035.736-.575.49-.97 1.15-1.184 1.978h6.532zm-3.036 7.36c-1.702 0-3.086-.566-4.15-1.701-1.068-1.135-1.6-2.568-1.6-4.301 0-1.64.517-3.051 1.552-4.232 1.035-1.181 2.358-1.771 3.967-1.771 1.671 0 3.01.544 4.014 1.633 1.004 1.089 1.507 2.545 1.507 4.37l-.024.39h-8.9c.061 1.136.441 2.033 1.138 2.692.698.66 1.514.989 2.45.989 1.518 0 2.545-.644 3.082-1.932l1.886.782c-.368.874-.974 1.607-1.818 2.197-.842.589-1.878.885-3.104.885zM197.73 26.821c-1.257 0-2.295-.307-3.115-.92a5.437 5.437 0 0 1-1.806-2.3l1.886-.782c.598 1.411 1.618 2.116 3.059 2.116.66 0 1.2-.145 1.622-.437.42-.291.632-.675.632-1.151 0-.735-.513-1.233-1.541-1.494l-2.277-.553c-.721-.183-1.403-.532-2.047-1.045-.643-.514-.966-1.208-.966-2.082 0-.997.44-1.806 1.323-2.426.88-.621 1.927-.932 3.139-.932.996 0 1.886.227 2.668.678a3.824 3.824 0 0 1 1.679 1.944l-1.84.759c-.414-.997-1.272-1.495-2.576-1.495-.63 0-1.157.131-1.587.391-.43.261-.644.614-.644 1.058 0 .644.498 1.081 1.496 1.311l2.23.529c1.059.245 1.84.667 2.346 1.265.507.598.759 1.273.759 2.024 0 1.012-.414 1.855-1.242 2.53-.828.674-1.894 1.012-3.197 1.012M183.31 15.183v1.563h.092c.306-.536.79-.992 1.449-1.368a4.202 4.202 0 0 1 2.116-.563c1.396 0 2.46.43 3.197 1.288.736.858 1.104 2.01 1.104 3.45v6.9h-2.116v-6.579c0-2.085-.928-3.128-2.782-3.128-.874 0-1.587.35-2.14 1.047-.552.698-.828 1.506-.828 2.426v6.234h-2.115v-11.27h2.023zM177.261 19.46c-.046-.643-.342-1.256-.886-1.84-.544-.581-1.353-.873-2.426-.873-.782 0-1.46.245-2.036.736-.575.49-.969 1.15-1.184 1.978h6.532zm-3.036 7.36c-1.702 0-3.086-.566-4.151-1.701-1.066-1.135-1.599-2.568-1.599-4.301 0-1.64.517-3.051 1.553-4.232 1.035-1.181 2.357-1.771 3.967-1.771 1.671 0 3.009.544 4.014 1.633 1.004 1.089 1.506 2.545 1.506 4.37l-.023.39h-8.901c.062 1.136.441 2.033 1.139 2.692.697.66 1.513.989 2.449.989 1.519 0 2.545-.644 3.082-1.932l1.886.782c-.367.874-.974 1.607-1.817 2.197-.843.589-1.879.885-3.105.885zM161.488 26.821c-1.195 0-2.365-.392-3.507-1.173-1.142-.782-1.89-1.878-2.243-3.289l1.933-.782a4.403 4.403 0 0 0 1.414 2.288c.712.621 1.513.932 2.402.932.921 0 1.706-.242 2.358-.725.652-.482.978-1.138.978-1.966 0-.92-.326-1.629-.978-2.128-.652-.498-1.683-.962-3.093-1.391-1.457-.46-2.562-1.054-3.313-1.783-.75-.728-1.126-1.659-1.126-2.795 0-1.18.468-2.208 1.404-3.082.934-.874 2.153-1.31 3.656-1.31 1.395 0 2.53.349 3.404 1.047.874.697 1.44 1.46 1.702 2.288l-1.932.805c-.137-.521-.48-1.004-1.023-1.449-.545-.445-1.246-.667-2.104-.667-.814 0-1.507.226-2.082.678-.575.453-.863 1.017-.863 1.69 0 .615.265 1.131.794 1.553.529.422 1.307.802 2.334 1.139.813.261 1.49.514 2.036.759a9.514 9.514 0 0 1 1.656.977c.559.406.98.912 1.265 1.519.283.605.425 1.306.425 2.104 0 .797-.164 1.51-.494 2.139a4.019 4.019 0 0 1-1.311 1.495 6.588 6.588 0 0 1-3.692 1.127M148.376 24.888c.996 0 1.843-.367 2.541-1.104.697-.736 1.047-1.724 1.047-2.966 0-1.242-.35-2.232-1.047-2.967-.698-.736-1.545-1.105-2.54-1.105-.982 0-1.826.372-2.53 1.116-.707.744-1.06 1.73-1.06 2.956s.353 2.212 1.06 2.955c.704.744 1.548 1.115 2.53 1.115m-.347 1.933c-1.457 0-2.714-.576-3.77-1.726-1.06-1.149-1.588-2.575-1.588-4.277s.528-3.128 1.587-4.279c1.057-1.15 2.314-1.724 3.771-1.724.86 0 1.63.183 2.312.552.682.368 1.192.828 1.53 1.38h.092l-.092-1.564V9.985h2.115v16.467h-2.023v-1.564h-.092c-.338.553-.848 1.013-1.53 1.381-.683.367-1.453.552-2.312.552M131.977 20.012h5.475l-2.692-7.429h-.092l-2.691 7.43zm-4.67 6.44l6.21-16.467h2.394l6.21 16.467h-2.346l-1.588-4.46h-6.923l-1.61 4.46h-2.346z"/></g><g fill="#5F6368"><path d="M112.19 20.637l5.364-2.228c-.296-.75-1.181-1.272-2.227-1.272-1.341 0-3.204 1.182-3.137 3.5m6.296 2.159l2.045 1.363c-.658.978-2.25 2.66-5 2.66-3.408 0-5.87-2.637-5.87-6 0-3.57 2.484-6.001 5.575-6.001 3.114 0 4.637 2.478 5.136 3.819l.273.682-8.023 3.318c.614 1.205 1.568 1.818 2.909 1.818 1.34 0 2.273-.66 2.955-1.66M105.484 26.455h2.636V8.818h-2.636zM101.183 20.841c0-2.113-1.41-3.659-3.205-3.659-1.817 0-3.341 1.546-3.341 3.659 0 2.091 1.524 3.614 3.34 3.614 1.796 0 3.206-1.523 3.206-3.614zm2.317-5.659v10.773c0 4.432-2.613 6.251-5.704 6.251-2.91 0-4.66-1.955-5.318-3.546l2.295-.955c.41.977 1.41 2.136 3.023 2.136 1.977 0 3.205-1.227 3.205-3.522v-.864h-.091c-.591.727-1.728 1.364-3.16 1.364-3 0-5.75-2.614-5.75-5.978 0-3.386 2.75-6.023 5.75-6.023 1.432 0 2.569.636 3.16 1.341h.09v-.977h2.5zM74.73 20.819c0-2.16-1.54-3.637-3.325-3.637-1.785 0-3.325 1.478-3.325 3.637 0 2.136 1.54 3.636 3.325 3.636 1.785 0 3.325-1.5 3.325-3.636m2.588 0c0 3.454-2.655 6-5.913 6-3.258 0-5.913-2.546-5.913-6 0-3.478 2.655-6 5.913-6 3.258 0 5.913 2.521 5.913 6M87.987 20.819c0-2.16-1.54-3.637-3.325-3.637-1.785 0-3.325 1.478-3.325 3.637 0 2.136 1.54 3.636 3.325 3.636 1.785 0 3.325-1.5 3.325-3.636m2.589 0c0 3.454-2.656 6-5.914 6-3.258 0-5.913-2.546-5.913-6 0-3.478 2.655-6 5.913-6 3.258 0 5.914 2.521 5.914 6M55.36 26.819c-5.135 0-9.454-4.182-9.454-9.318 0-5.137 4.319-9.32 9.455-9.32 2.842 0 4.864 1.115 6.387 2.57l-1.796 1.795c-1.091-1.023-2.568-1.818-4.591-1.818-3.75 0-6.683 3.023-6.683 6.773 0 3.75 2.933 6.772 6.683 6.772 2.432 0 3.818-.977 4.705-1.864.727-.726 1.205-1.772 1.386-3.204H55.36V16.66h8.568c.092.454.137 1 .137 1.59 0 1.91-.523 4.274-2.204 5.956-1.637 1.704-3.728 2.613-6.501 2.613"/></g><path d="M29.167 3.913H5.795a2.198 2.198 0 0 0-2.19 2.19v.184c0-1.205.985-2.191 2.19-2.191h23.372c1.205 0 2.191.986 2.191 2.19v-.182a2.198 2.198 0 0 0-2.19-2.191" fill="#FFF"/><path d="M21.677 9.063c1.408-2.41.572-5.49-1.867-6.882-2.44-1.39-5.559-.566-6.967 1.844a5.49 5.49 0 0 0-.175.33l-4.76 8.143a6.004 6.004 0 0 0-.292.5l-4.943 8.53 8.833 4.951 4.918-8.458a4.867 4.867 0 0 0 .292-.5l4.76-8.144c.069-.102.138-.206.201-.314" fill="#FBBC04"/><path d="M11.547 26.453c-1.4 2.449-4.558 3.35-6.983 1.937-2.426-1.414-3.287-4.48-1.886-6.928 1.401-2.448 4.531-3.353 6.957-1.94 2.426 1.414 3.312 4.483 1.912 6.93" fill="#34A853"/><path d="M30.608 10.675a5.05 5.05 0 0 0-6.889 1.84l-5.043 8.714a5.024 5.024 0 0 0 1.846 6.872 5.05 5.05 0 0 0 6.89-1.841l5.042-8.713a5.025 5.025 0 0 0-1.846-6.872" fill="#4285F4"/></g></svg>
